<svg width="1200" height="900" viewBox="0 0 1200 900" fill="none" xmlns="http://www.w3.org/2000/svg">
  <rect width="1200" height="900" fill="#FFF7F3"/>
  <rect width="1200" height="900" fill="url(#bg)"/>
  <circle cx="1020" cy="130" r="250" fill="#E17564" fill-opacity=".12"/>
  <circle cx="160" cy="760" r="230" fill="#BE3144" fill-opacity=".10"/>
  <path d="M0 704C170 644 303 670 475 718C654 768 809 790 1200 675V900H0V704Z" fill="#09122C" fill-opacity=".06"/>
  <g filter="url(#shadow)">
    <rect x="208" y="152" width="784" height="596" rx="62" fill="white" fill-opacity=".78"/>
    <rect x="208" y="152" width="784" height="596" rx="62" stroke="#E17564" stroke-opacity=".28" stroke-width="3"/>
  </g>
  <g transform="translate(600 430)">
    <ellipse cx="0" cy="238" rx="310" ry="38" fill="#09122C" fill-opacity=".10"/>
    <path d="M-342 110C-238-88-60-212 128-173C287-140 347-28 313 96C275 234 132 294-4 235C-130 181-125 36-28-22C59-74 164-37 181 58C195 138 124 193 40 183C-50 172-94 89-58 18" stroke="#BE3144" stroke-width="42" stroke-linecap="round"/>
    <path d="M-300 128C-214-40-52-152 111-119C238-93 290-4 263 90C233 198 121 247 13 201C-81 161-80 58-9 17C54-20 130 8 142 75C151 128 101 164 43 157C-19 149-50 94-27 44" stroke="#E17564" stroke-width="26" stroke-linecap="round"/>
    <path d="M-375 132L-304 91" stroke="#09122C" stroke-width="48" stroke-linecap="round"/>
    <path d="M308 78L384 42" stroke="#09122C" stroke-width="48" stroke-linecap="round"/>
    <path d="M-380 132L-303 88" stroke="white" stroke-opacity=".16" stroke-width="18" stroke-linecap="round"/>
    <path d="M309 77L384 41" stroke="white" stroke-opacity=".16" stroke-width="18" stroke-linecap="round"/>
    <circle cx="-306" cy="91" r="15" fill="#FFF7F3"/>
    <circle cx="306" cy="77" r="15" fill="#FFF7F3"/>
  </g>
  <g opacity=".86">
    <rect x="285" y="210" width="180" height="44" rx="22" fill="#09122C"/>
    <text x="375" y="239" text-anchor="middle" font-family="Arial, Helvetica, sans-serif" font-size="18" font-weight="800" letter-spacing="3" fill="#FFF7F3">WELCARE</text>
    <text x="285" y="296" font-family="Arial, Helvetica, sans-serif" font-size="48" font-weight="900" fill="#09122C">Resistance Band Kit</text>
    <text x="288" y="333" font-family="Arial, Helvetica, sans-serif" font-size="22" font-weight="700" fill="#BE3144">Portable strength and mobility support</text>
  </g>
  <g opacity=".82">
    <rect x="770" y="602" width="92" height="92" rx="28" fill="#E17564" fill-opacity=".16"/>
    <path d="M793 649L810 666L842 629" stroke="#BE3144" stroke-width="12" stroke-linecap="round" stroke-linejoin="round"/>
  </g>
  <defs>
    <linearGradient id="bg" x1="0" x2="1200" y1="0" y2="900">
      <stop stop-color="#FFF7F3"/>
      <stop offset=".48" stop-color="#F6E6E0"/>
      <stop offset="1" stop-color="#EED4CE"/>
    </linearGradient>
    <filter id="shadow" x="158" y="112" width="884" height="696" filterUnits="userSpaceOnUse" color-interpolation-filters="sRGB">
      <feDropShadow dx="0" dy="24" stdDeviation="32" flood-color="#09122C" flood-opacity=".18"/>
    </filter>
  </defs>
</svg>
